<svg xmlns="http://www.w3.org/2000/svg" width="1440" height="720" viewBox="0 0 1440 720"><title>One self, separate contexts behind a silver veil</title><defs><radialGradient id="light"><stop stop-color="#393939"/><stop offset="1" stop-color="#111111"/></radialGradient><linearGradient id="shade" x2="0" y2="1"><stop stop-color="#1a1a1a"/><stop offset="1" stop-color="#141414" stop-opacity="0"/></linearGradient><linearGradient id="fiber"><stop stop-color="#111" stop-opacity="0"/><stop offset=".4" stop-color="#a3a3a3" stop-opacity=".22"/><stop offset=".5" stop-color="#ededed" stop-opacity=".4"/><stop offset=".72" stop-color="#777" stop-opacity=".13"/><stop offset="1" stop-color="#111" stop-opacity="0"/></linearGradient><g id="fold"><path d="M0 3C56 165-54 377-26 693L24 693C-4 376 107 160 53 3Z" fill="url(#fiber)"/><path d="M12 4C67 174-34 393-16 690M21 4C76 174-25 393-7 690M30 4C85 174-16 393 2 690M39 4C94 174-7 393 11 690" fill="none" stroke="#eee" stroke-width=".35" opacity=".1"/></g></defs><path fill="url(#light)" d="M0 0H1440V720H0Z"/><path fill="url(#shade)" transform="translate(223 -5) scale(.91)" d="M164 732 L172 573 C174 521 190 478 222 460 L245 440 L247 396 C224 385 207 367 201 342 L193 315 L175 303 L190 279 C193 254 193 234 207 217 C228 188 260 177 294 190 C328 201 346 229 345 270 C348 307 335 347 309 370 L300 437 C322 456 358 475 376 503 C393 531 404 611 419 732 Z"/><path fill="url(#shade)" transform="translate(487 -5) scale(.91)" d="M69 732 L77 592 C79 531 105 488 161 471 L208 448 L214 393 C187 370 172 333 170 293 C163 250 177 207 208 186 C238 163 279 165 310 185 C340 206 351 246 347 288 C345 333 332 369 302 393 L308 448 L354 471 C410 488 435 530 438 592 L445 732 Z"/><path fill="url(#shade)" transform="translate(751 -5) scale(.91)" d="M86 732 L99 594 C106 525 127 488 175 469 L211 450 L211 399 C186 377 175 343 177 310 C168 276 175 244 193 224 C212 201 243 190 274 195 C309 201 328 224 334 255 L338 281 L353 303 L336 314 C334 344 319 372 292 387 L286 443 L326 466 C368 488 389 531 395 584 L411 732 Z"/><use href="#fold" x="170"/><use href="#fold" x="233"/><use href="#fold" x="296"/><use href="#fold" x="359"/><use href="#fold" x="422"/><use href="#fold" x="485"/><use href="#fold" x="548"/><use href="#fold" x="611"/><use href="#fold" x="674"/><use href="#fold" x="737"/><use href="#fold" x="800"/><use href="#fold" x="863"/><use href="#fold" x="926"/><use href="#fold" x="989"/><use href="#fold" x="1052"/><use href="#fold" x="1115"/><use href="#fold" x="1178"/><use href="#fold" x="1241"/><use href="#fold" x="1304"/></svg>